PathFileType  4	(X/Y/Z) C:\Users\wagnerel85475\Documents\Thesis\opencap-core\Data\3375ffbc-daeb-4a43-b4f7-ac9899cd4c71\MarkerData\PreAugmentation
DataRate	CameraRate	NumFrames	NumMarkers	Units	OrigDataRate	OrigDataStartFrame	OrigNumFrames
60.0	60.0	9	20	m	60.0	113	897
Frame#	Time	Neck			RShoulder			RElbow			RWrist			LShoulder			LElbow			LWrist			midHip			RHip			RKnee			RAnkle			LHip			LKnee			LAnkle			LBigToe			LSmallToe			LHeel			RBigToe			RSmallToe			RHeel			
		X1	Y1	Z1	X2	Y2	Z2	X3	Y3	Z3	X4	Y4	Z4	X5	Y5	Z5	X6	Y6	Z6	X7	Y7	Z7	X8	Y8	Z8	X9	Y9	Z9	X10	Y10	Z10	X11	Y11	Z11	X12	Y12	Z12	X13	Y13	Z13	X14	Y14	Z14	X15	Y15	Z15	X16	Y16	Z16	X17	Y17	Z17	X18	Y18	Z18	X19	Y19	Z19	X20	Y20	Z20	

113	1.8666667	0.6720600	1.3543600	-0.1082700	0.6844800	1.3594600	0.0774900	0.6395100	1.0478600	0.1604900	0.7409700	0.7681200	0.2121900	0.6826500	1.3512100	-0.3020400	0.6485800	1.0521400	-0.3617900	0.7070300	0.7569600	-0.4030600	0.6823800	0.8024300	-0.1017500	0.6971300	0.8074000	0.0171900	0.6147100	0.3056800	0.0396500	0.5897800	-0.1992500	0.0768600	0.6860300	0.7973000	-0.2171600	0.6170200	0.3066100	-0.2213500	0.6094100	-0.1916100	-0.2900600	0.8122100	-0.2296400	-0.3440600	0.7689100	-0.2323200	-0.3788000	0.5543000	-0.2419200	-0.2802600	0.7892900	-0.2378500	0.1449400	0.7438600	-0.2375800	0.1745200	0.5601500	-0.2413200	0.0592400
114	1.8833333	0.6719100	1.3566100	-0.1085000	0.6843400	1.3599300	0.0771900	0.6452000	1.0569900	0.1625500	0.7589100	0.7762900	0.2133300	0.6776200	1.3512000	-0.3002000	0.6591400	1.0552700	-0.3613200	0.7381900	0.7648900	-0.4066900	0.6824300	0.8003500	-0.1019100	0.6867300	0.8058900	0.0217500	0.6152500	0.3058600	0.0396200	0.5898600	-0.1967000	0.0771900	0.6863200	0.7973800	-0.2170200	0.6114600	0.3074800	-0.2188300	0.6094200	-0.1899300	-0.2898200	0.8122300	-0.2296000	-0.3440900	0.7693100	-0.2323200	-0.3786100	0.5545800	-0.2397300	-0.2798200	0.7994900	-0.2325100	0.1389700	0.7635800	-0.2303300	0.1639200	0.5543000	-0.2417400	0.0613800
115	1.9000000	0.6722100	1.3562900	-0.1082300	0.6798900	1.3613400	0.0800400	0.6526300	1.0554000	0.1686500	0.7730800	0.7900600	0.2134100	0.6826800	1.3531200	-0.2974800	0.6592700	1.0545500	-0.3662500	0.7630500	0.7770600	-0.4035400	0.6826100	0.8001600	-0.1018600	0.6923000	0.8060000	0.0149300	0.6258300	0.3105200	0.0392000	0.5899500	-0.1968200	0.0771900	0.6859300	0.7995700	-0.2170000	0.6117200	0.3123100	-0.2183500	0.6090400	-0.1894700	-0.2897100	0.8028300	-0.2330100	-0.3484700	0.7690100	-0.2301400	-0.3785200	0.5541200	-0.2381400	-0.2750500	0.7940600	-0.2345300	0.1420400	0.7531800	-0.2339500	0.1693500	0.5603400	-0.2397600	0.0633800
116	1.9166667	0.6718800	1.3566400	-0.1084800	0.6794700	1.3599900	0.0797700	0.6535900	1.0557700	0.1733900	0.8011400	0.7974000	0.2138300	0.6881300	1.3529300	-0.3001000	0.6645700	1.0636800	-0.3681800	0.7888200	0.7846300	-0.4138800	0.6820900	0.8026400	-0.1018400	0.6863400	0.8074000	0.0170100	0.6361900	0.3192800	0.0338200	0.5896400	-0.1948900	0.0768400	0.6809500	0.7990400	-0.2191100	0.6114400	0.3140200	-0.2186100	0.6092800	-0.1857600	-0.2898600	0.8032800	-0.2346900	-0.3481500	0.7691200	-0.2320500	-0.3786500	0.5545500	-0.2358900	-0.2746200	0.7734300	-0.2373100	0.1526500	0.7465200	-0.2348300	0.1726400	0.5595700	-0.2406200	0.0590600
117	1.9333333	0.6672300	1.3605100	-0.1058800	0.6798700	1.3613400	0.0800500	0.6655800	1.0639200	0.1766400	0.8203300	0.8056500	0.2157100	0.6825900	1.3573000	-0.2974800	0.6697800	1.0643800	-0.3661300	0.8035000	0.8022600	-0.4161500	0.6819800	0.8028100	-0.1015700	0.6911600	0.8090800	0.0153400	0.6356500	0.3209900	0.0335700	0.5895500	-0.1898000	0.0758100	0.6754600	0.7984200	-0.2167500	0.6115300	0.3118600	-0.2187800	0.6090800	-0.1895400	-0.2897100	0.8027500	-0.2328000	-0.3484800	0.7687300	-0.2320400	-0.3788600	0.5541000	-0.2381700	-0.2750600	0.8084900	-0.2290700	0.1386500	0.7732700	-0.2318400	0.1624400	0.5541600	-0.2357200	0.0602100
118	1.9500000	0.6716700	1.3589200	-0.1085000	0.6844500	1.3617300	0.0771900	0.6656200	1.0656500	0.1768700	0.8326100	0.8209000	0.2152300	0.6880800	1.3570900	-0.3000900	0.6751900	1.0731400	-0.3726500	0.8282300	0.8152800	-0.4218800	0.6712900	0.8060700	-0.1013200	0.6698600	0.8088600	0.0205700	0.6420600	0.3186500	0.0359700	0.5894800	-0.1896200	0.0757900	0.6756300	0.8025900	-0.2166400	0.6170100	0.3134900	-0.2207400	0.6093500	-0.1858400	-0.2898500	0.7980000	-0.2342700	-0.3507400	0.7642900	-0.2334600	-0.3808900	0.5599300	-0.2340100	-0.2723900	0.8053100	-0.2275700	0.1398800	0.7559300	-0.2316400	0.1674200	0.5486700	-0.2374100	0.0626100
119	1.9666667	0.6721500	1.3604400	-0.1082100	0.6846400	1.3613000	0.0774900	0.6668500	1.0656000	0.1811200	0.8704800	0.8383800	0.2156400	0.6826100	1.3573300	-0.2974700	0.6857300	1.0752400	-0.3773600	0.8526800	0.8221300	-0.4236600	0.6662300	0.8052200	-0.0987000	0.6607400	0.8098500	0.0261600	0.6470400	0.3224500	0.0335900	0.5895400	-0.1916200	0.0761700	0.6699900	0.8017300	-0.2145900	0.6223700	0.3125400	-0.2232500	0.6088800	-0.1874300	-0.2893400	0.7984300	-0.2362100	-0.3503500	0.7638900	-0.2335800	-0.3811400	0.5596300	-0.2324500	-0.2721200	0.7996900	-0.2311700	0.1433400	0.7599500	-0.2317000	0.1697600	0.5541400	-0.2372800	0.0605600
120	1.9833333	0.6719300	1.3608400	-0.1084900	0.6846000	1.3617800	0.0771600	0.6727700	1.0719000	0.1830100	0.8911800	0.8503200	0.2101600	0.6883000	1.3590100	-0.3000700	0.6964100	1.0800300	-0.3814100	0.8758600	0.8405500	-0.4164600	0.6665300	0.8031500	-0.0943900	0.6605400	0.8026900	0.0253900	0.6524600	0.3234800	0.0311000	0.5895600	-0.1932000	0.0765100	0.6704600	0.7997500	-0.2145400	0.6221400	0.3143400	-0.2235300	0.6144000	-0.1861000	-0.2873000	0.8028700	-0.2366100	-0.3484900	0.7643400	-0.2335800	-0.3808800	0.5602700	-0.2362100	-0.2764800	0.8004800	-0.2325500	0.1431600	0.7469900	-0.2356900	0.1725300	0.5597200	-0.2367000	0.0625800
121	2.0000000	0.6725100	1.3624200	-0.1082200	0.6897500	1.3631600	0.0749400	0.6967500	1.0747000	0.1899000	0.8984600	0.8697400	0.2087600	0.6929500	1.3614000	-0.3019200	0.7015900	1.0821500	-0.3839100	0.8949700	0.8529300	-0.4160200	0.6510700	0.7987900	-0.0915600	0.6612000	0.8047600	0.0258800	0.6473400	0.3138000	0.0336000	0.5897800	-0.1975500	0.0765100	0.6647100	0.8010200	-0.2122500	0.6223200	0.3144200	-0.2234900	0.6141200	-0.1898400	-0.2871300	0.8120300	-0.2355800	-0.3443500	0.7634900	-0.2362400	-0.3770900	0.5543600	-0.2404900	-0.2791600	0.7629600	-0.2428500	0.1587600	0.7356500	-0.2402900	0.1785400	0.5657300	-0.2388700	0.0610600
